<svg xmlns="http://www.w3.org/2000/svg" version="1.1" viewBox="0.00 0.00 219.00 253.00" width="219.00" height="253.00">
<g stroke-width="2.00" fill="none" stroke-linecap="butt">
<path stroke="#82b7dd" d="&#10;  M 97.27 45.70&#10;  A 0.35 0.35 0.0 0 0 97.44 46.00&#10;  L 173.52 89.90&#10;  A 0.35 0.35 0.0 0 1 173.70 90.20&#10;  L 173.71 178.01&#10;  A 0.35 0.35 0.0 0 0 173.88 178.31&#10;  L 184.94 184.73&#10;  A 0.35 0.35 0.0 0 0 185.47 184.42&#10;  L 185.46 83.44&#10;  A 0.35 0.35 0.0 0 0 185.28 83.14&#10;  L 97.73 32.64&#10;  A 0.35 0.35 0.0 0 0 97.20 32.95&#10;  L 97.27 45.70"/>
<path stroke="#82b7dd" d="&#10;  M 76.28 57.75&#10;  A 0.33 0.33 0.0 0 0 76.44 58.03&#10;  L 152.56 101.95&#10;  A 0.33 0.33 0.0 0 1 152.73 102.24&#10;  L 152.75 190.11&#10;  A 0.33 0.33 0.0 0 0 152.92 190.40&#10;  L 164.01 196.78&#10;  A 0.33 0.33 0.0 0 0 164.50 196.49&#10;  L 164.49 95.50&#10;  A 0.33 0.33 0.0 0 0 164.32 95.21&#10;  L 76.74 44.70&#10;  A 0.33 0.33 0.0 0 0 76.24 44.98&#10;  L 76.28 57.75"/>
<path stroke="#82b7dd" d="&#10;  M 55.33 69.84&#10;  A 0.30 0.30 0.0 0 0 55.48 70.10&#10;  L 131.63 114.02&#10;  A 0.30 0.30 0.0 0 1 131.78 114.28&#10;  L 131.79 202.19&#10;  A 0.30 0.30 0.0 0 0 131.94 202.45&#10;  L 143.06 208.86&#10;  A 0.30 0.30 0.0 0 0 143.51 208.60&#10;  L 143.51 107.52&#10;  A 0.30 0.30 0.0 0 0 143.36 107.26&#10;  L 55.76 56.74&#10;  A 0.30 0.30 0.0 0 0 55.31 57.00&#10;  L 55.33 69.84"/>
<path stroke="#82b7dd" d="&#10;  M 34.92 68.87&#10;  A 0.34 0.34 0.0 0 0 34.41 69.17&#10;  L 34.43 170.15&#10;  A 0.34 0.34 0.0 0 0 34.60 170.45&#10;  L 122.06 220.90&#10;  A 0.34 0.34 0.0 0 0 122.57 220.60&#10;  L 122.57 119.63&#10;  A 0.34 0.34 0.0 0 0 122.40 119.33&#10;  L 34.92 68.87"/>
</g>
<path fill="#056fbb" d="&#10;  M 2.37 63.81&#10;  L 107.32 3.57&#10;  A 5.40 5.38 -44.7 0 1 112.70 3.59&#10;  L 217.54 64.75&#10;  Q 218.01 65.02 218.01 65.56&#10;  L 217.96 188.69&#10;  Q 217.96 188.98 217.71 189.12&#10;  L 110.24 250.83&#10;  Q 109.98 250.98 109.73 250.83&#10;  L 2.37 189.18&#10;  A 0.73 0.73 0.0 0 1 2.01 188.55&#10;  L 2.00 64.45&#10;  Q 2.00 64.02 2.37 63.81&#10;  Z&#10;  M 97.27 45.70&#10;  A 0.35 0.35 0.0 0 0 97.44 46.00&#10;  L 173.52 89.90&#10;  A 0.35 0.35 0.0 0 1 173.70 90.20&#10;  L 173.71 178.01&#10;  A 0.35 0.35 0.0 0 0 173.88 178.31&#10;  L 184.94 184.73&#10;  A 0.35 0.35 0.0 0 0 185.47 184.42&#10;  L 185.46 83.44&#10;  A 0.35 0.35 0.0 0 0 185.28 83.14&#10;  L 97.73 32.64&#10;  A 0.35 0.35 0.0 0 0 97.20 32.95&#10;  L 97.27 45.70&#10;  Z&#10;  M 76.28 57.75&#10;  A 0.33 0.33 0.0 0 0 76.44 58.03&#10;  L 152.56 101.95&#10;  A 0.33 0.33 0.0 0 1 152.73 102.24&#10;  L 152.75 190.11&#10;  A 0.33 0.33 0.0 0 0 152.92 190.40&#10;  L 164.01 196.78&#10;  A 0.33 0.33 0.0 0 0 164.50 196.49&#10;  L 164.49 95.50&#10;  A 0.33 0.33 0.0 0 0 164.32 95.21&#10;  L 76.74 44.70&#10;  A 0.33 0.33 0.0 0 0 76.24 44.98&#10;  L 76.28 57.75&#10;  Z&#10;  M 55.33 69.84&#10;  A 0.30 0.30 0.0 0 0 55.48 70.10&#10;  L 131.63 114.02&#10;  A 0.30 0.30 0.0 0 1 131.78 114.28&#10;  L 131.79 202.19&#10;  A 0.30 0.30 0.0 0 0 131.94 202.45&#10;  L 143.06 208.86&#10;  A 0.30 0.30 0.0 0 0 143.51 208.60&#10;  L 143.51 107.52&#10;  A 0.30 0.30 0.0 0 0 143.36 107.26&#10;  L 55.76 56.74&#10;  A 0.30 0.30 0.0 0 0 55.31 57.00&#10;  L 55.33 69.84&#10;  Z&#10;  M 34.92 68.87&#10;  A 0.34 0.34 0.0 0 0 34.41 69.17&#10;  L 34.43 170.15&#10;  A 0.34 0.34 0.0 0 0 34.60 170.45&#10;  L 122.06 220.90&#10;  A 0.34 0.34 0.0 0 0 122.57 220.60&#10;  L 122.57 119.63&#10;  A 0.34 0.34 0.0 0 0 122.40 119.33&#10;  L 34.92 68.87&#10;  Z"/>
<path fill="#ffffff" d="&#10;  M 97.27 45.70&#10;  L 97.20 32.95&#10;  A 0.35 0.35 0.0 0 1 97.73 32.64&#10;  L 185.28 83.14&#10;  A 0.35 0.35 0.0 0 1 185.46 83.44&#10;  L 185.47 184.42&#10;  A 0.35 0.35 0.0 0 1 184.94 184.73&#10;  L 173.88 178.31&#10;  A 0.35 0.35 0.0 0 1 173.71 178.01&#10;  L 173.70 90.20&#10;  A 0.35 0.35 0.0 0 0 173.52 89.90&#10;  L 97.44 46.00&#10;  A 0.35 0.35 0.0 0 1 97.27 45.70&#10;  Z"/>
<path fill="#ffffff" d="&#10;  M 76.28 57.75&#10;  L 76.24 44.98&#10;  A 0.33 0.33 0.0 0 1 76.74 44.70&#10;  L 164.32 95.21&#10;  A 0.33 0.33 0.0 0 1 164.49 95.50&#10;  L 164.50 196.49&#10;  A 0.33 0.33 0.0 0 1 164.01 196.78&#10;  L 152.92 190.40&#10;  A 0.33 0.33 0.0 0 1 152.75 190.11&#10;  L 152.73 102.24&#10;  A 0.33 0.33 0.0 0 0 152.56 101.95&#10;  L 76.44 58.03&#10;  A 0.33 0.33 0.0 0 1 76.28 57.75&#10;  Z"/>
<path fill="#ffffff" d="&#10;  M 55.33 69.84&#10;  L 55.31 57.00&#10;  A 0.30 0.30 0.0 0 1 55.76 56.74&#10;  L 143.36 107.26&#10;  A 0.30 0.30 0.0 0 1 143.51 107.52&#10;  L 143.51 208.60&#10;  A 0.30 0.30 0.0 0 1 143.06 208.86&#10;  L 131.94 202.45&#10;  A 0.30 0.30 0.0 0 1 131.79 202.19&#10;  L 131.78 114.28&#10;  A 0.30 0.30 0.0 0 0 131.63 114.02&#10;  L 55.48 70.10&#10;  A 0.30 0.30 0.0 0 1 55.33 69.84&#10;  Z"/>
<path fill="#ffffff" d="&#10;  M 34.92 68.87&#10;  L 122.40 119.33&#10;  A 0.34 0.34 0.0 0 1 122.57 119.63&#10;  L 122.57 220.60&#10;  A 0.34 0.34 0.0 0 1 122.06 220.90&#10;  L 34.60 170.45&#10;  A 0.34 0.34 0.0 0 1 34.43 170.15&#10;  L 34.41 69.17&#10;  A 0.34 0.34 0.0 0 1 34.92 68.87&#10;  Z"/>
</svg>