<svg xmlns="http://www.w3.org/2000/svg" version="1.1" viewBox="0.00 0.00 119.00 139.00" width="119.00" height="139.00">
<g stroke-width="2.00" fill="none" stroke-linecap="butt">
<path stroke="#82b7dd" d="&#10;  M 94.15 49.96&#10;  A 0.34 0.34 0.0 0 1 94.32 50.26&#10;  L 94.35 98.94&#10;  A 0.34 0.34 0.0 0 0 94.52 99.24&#10;  L 100.41 102.64&#10;  A 0.34 0.34 0.0 0 0 100.92 102.35&#10;  L 100.92 46.45&#10;  A 0.34 0.34 0.0 0 0 100.75 46.15&#10;  L 52.26 18.17&#10;  A 0.34 0.34 0.0 0 0 51.75 18.47&#10;  L 51.76 25.31&#10;  A 0.34 0.34 0.0 0 0 51.93 25.61&#10;  L 94.15 49.96"/>
<path stroke="#82b7dd" d="&#10;  M 40.19 32.10&#10;  A 0.31 0.31 0.0 0 0 40.35 32.37&#10;  L 82.54 56.69&#10;  A 0.31 0.31 0.0 0 1 82.70 56.96&#10;  L 82.72 105.67&#10;  A 0.31 0.31 0.0 0 0 82.87 105.94&#10;  L 88.80 109.41&#10;  A 0.31 0.31 0.0 0 0 89.27 109.14&#10;  L 89.28 53.14&#10;  A 0.31 0.31 0.0 0 0 89.12 52.87&#10;  L 40.69 24.93&#10;  A 0.31 0.31 0.0 0 0 40.23 25.19&#10;  L 40.19 32.10"/>
<path stroke="#82b7dd" d="&#10;  M 28.50 38.79&#10;  A 0.32 0.32 0.0 0 0 28.66 39.06&#10;  L 70.93 63.42&#10;  A 0.32 0.32 0.0 0 1 71.09 63.69&#10;  L 71.09 112.40&#10;  A 0.32 0.32 0.0 0 0 71.25 112.67&#10;  L 77.15 116.12&#10;  A 0.32 0.32 0.0 0 0 77.63 115.84&#10;  L 77.65 59.86&#10;  A 0.32 0.32 0.0 0 0 77.49 59.59&#10;  L 28.98 31.62&#10;  A 0.32 0.32 0.0 0 0 28.50 31.89&#10;  L 28.50 38.79"/>
<path stroke="#82b7dd" d="&#10;  M 65.46 122.76&#10;  A 0.37 0.37 0.0 0 0 66.01 122.44&#10;  L 65.99 66.60&#10;  A 0.37 0.37 0.0 0 0 65.80 66.28&#10;  L 17.39 38.36&#10;  A 0.37 0.37 0.0 0 0 16.84 38.68&#10;  L 16.85 94.54&#10;  A 0.37 0.37 0.0 0 0 17.04 94.86&#10;  L 65.46 122.76"/>
</g>
<path fill="#ffffff" d="&#10;  M 58.43 138.63&#10;  L 0.83 105.43&#10;  A 1.15 1.15 0.0 0 1 0.25 104.44&#10;  L 0.25 36.55&#10;  A 1.15 1.15 0.0 0 1 0.81 35.56&#10;  L 58.58 1.32&#10;  A 1.15 1.15 0.0 0 1 59.76 1.32&#10;  L 117.44 35.69&#10;  A 1.15 1.15 0.0 0 1 118.00 36.67&#10;  L 118.00 104.32&#10;  A 1.15 1.15 0.0 0 1 117.42 105.31&#10;  L 59.57 138.63&#10;  A 1.15 1.15 0.0 0 1 58.43 138.63&#10;  Z&#10;  M 94.15 49.96&#10;  A 0.34 0.34 0.0 0 1 94.32 50.26&#10;  L 94.35 98.94&#10;  A 0.34 0.34 0.0 0 0 94.52 99.24&#10;  L 100.41 102.64&#10;  A 0.34 0.34 0.0 0 0 100.92 102.35&#10;  L 100.92 46.45&#10;  A 0.34 0.34 0.0 0 0 100.75 46.15&#10;  L 52.26 18.17&#10;  A 0.34 0.34 0.0 0 0 51.75 18.47&#10;  L 51.76 25.31&#10;  A 0.34 0.34 0.0 0 0 51.93 25.61&#10;  L 94.15 49.96&#10;  Z&#10;  M 40.19 32.10&#10;  A 0.31 0.31 0.0 0 0 40.35 32.37&#10;  L 82.54 56.69&#10;  A 0.31 0.31 0.0 0 1 82.70 56.96&#10;  L 82.72 105.67&#10;  A 0.31 0.31 0.0 0 0 82.87 105.94&#10;  L 88.80 109.41&#10;  A 0.31 0.31 0.0 0 0 89.27 109.14&#10;  L 89.28 53.14&#10;  A 0.31 0.31 0.0 0 0 89.12 52.87&#10;  L 40.69 24.93&#10;  A 0.31 0.31 0.0 0 0 40.23 25.19&#10;  L 40.19 32.10&#10;  Z&#10;  M 28.50 38.79&#10;  A 0.32 0.32 0.0 0 0 28.66 39.06&#10;  L 70.93 63.42&#10;  A 0.32 0.32 0.0 0 1 71.09 63.69&#10;  L 71.09 112.40&#10;  A 0.32 0.32 0.0 0 0 71.25 112.67&#10;  L 77.15 116.12&#10;  A 0.32 0.32 0.0 0 0 77.63 115.84&#10;  L 77.65 59.86&#10;  A 0.32 0.32 0.0 0 0 77.49 59.59&#10;  L 28.98 31.62&#10;  A 0.32 0.32 0.0 0 0 28.50 31.89&#10;  L 28.50 38.79&#10;  Z&#10;  M 65.46 122.76&#10;  A 0.37 0.37 0.0 0 0 66.01 122.44&#10;  L 65.99 66.60&#10;  A 0.37 0.37 0.0 0 0 65.80 66.28&#10;  L 17.39 38.36&#10;  A 0.37 0.37 0.0 0 0 16.84 38.68&#10;  L 16.85 94.54&#10;  A 0.37 0.37 0.0 0 0 17.04 94.86&#10;  L 65.46 122.76&#10;  Z"/>
<path fill="#056fbb" d="&#10;  M 94.15 49.96&#10;  L 51.93 25.61&#10;  A 0.34 0.34 0.0 0 1 51.76 25.31&#10;  L 51.75 18.47&#10;  A 0.34 0.34 0.0 0 1 52.26 18.17&#10;  L 100.75 46.15&#10;  A 0.34 0.34 0.0 0 1 100.92 46.45&#10;  L 100.92 102.35&#10;  A 0.34 0.34 0.0 0 1 100.41 102.64&#10;  L 94.52 99.24&#10;  A 0.34 0.34 0.0 0 1 94.35 98.94&#10;  L 94.32 50.26&#10;  A 0.34 0.34 0.0 0 0 94.15 49.96&#10;  Z"/>
<path fill="#056fbb" d="&#10;  M 40.19 32.10&#10;  L 40.23 25.19&#10;  A 0.31 0.31 0.0 0 1 40.69 24.93&#10;  L 89.12 52.87&#10;  A 0.31 0.31 0.0 0 1 89.28 53.14&#10;  L 89.27 109.14&#10;  A 0.31 0.31 0.0 0 1 88.80 109.41&#10;  L 82.87 105.94&#10;  A 0.31 0.31 0.0 0 1 82.72 105.67&#10;  L 82.70 56.96&#10;  A 0.31 0.31 0.0 0 0 82.54 56.69&#10;  L 40.35 32.37&#10;  A 0.31 0.31 0.0 0 1 40.19 32.10&#10;  Z"/>
<path fill="#056fbb" d="&#10;  M 28.50 38.79&#10;  L 28.50 31.89&#10;  A 0.32 0.32 0.0 0 1 28.98 31.62&#10;  L 77.49 59.59&#10;  A 0.32 0.32 0.0 0 1 77.65 59.86&#10;  L 77.63 115.84&#10;  A 0.32 0.32 0.0 0 1 77.15 116.12&#10;  L 71.25 112.67&#10;  A 0.32 0.32 0.0 0 1 71.09 112.40&#10;  L 71.09 63.69&#10;  A 0.32 0.32 0.0 0 0 70.93 63.42&#10;  L 28.66 39.06&#10;  A 0.32 0.32 0.0 0 1 28.50 38.79&#10;  Z"/>
<path fill="#056fbb" d="&#10;  M 65.46 122.76&#10;  L 17.04 94.86&#10;  A 0.37 0.37 0.0 0 1 16.85 94.54&#10;  L 16.84 38.68&#10;  A 0.37 0.37 0.0 0 1 17.39 38.36&#10;  L 65.80 66.28&#10;  A 0.37 0.37 0.0 0 1 65.99 66.60&#10;  L 66.01 122.44&#10;  A 0.37 0.37 0.0 0 1 65.46 122.76&#10;  Z"/>
</svg>