<svg xmlns="http://www.w3.org/2000/svg" version="1.1" viewBox="0.00 0.00 77.00 90.00" width="77.00" height="90.00">
<g stroke-width="2.00" fill="none" stroke-linecap="butt">
<path stroke="#81809c" d="&#10;  M 33.91 17.30&#10;  A 0.35 0.35 0.0 0 0 34.09 17.60&#10;  L 61.20 33.24&#10;  A 0.35 0.35 0.0 0 1 61.38 33.54&#10;  L 61.38 64.74&#10;  A 0.35 0.35 0.0 0 0 61.55 65.04&#10;  L 65.03 67.12&#10;  A 0.35 0.35 0.0 0 0 65.56 66.82&#10;  L 65.58 31.09&#10;  A 0.35 0.35 0.0 0 0 65.40 30.79&#10;  L 34.47 12.94&#10;  A 0.35 0.35 0.0 0 0 33.95 13.24&#10;  L 33.91 17.30"/>
<path stroke="#81809c" d="&#10;  M 26.51 21.70&#10;  A 0.31 0.31 0.0 0 0 26.66 21.97&#10;  L 53.65 37.52&#10;  A 0.31 0.31 0.0 0 1 53.81 37.79&#10;  L 53.81 69.02&#10;  A 0.31 0.31 0.0 0 0 53.96 69.29&#10;  L 57.66 71.49&#10;  A 0.31 0.31 0.0 0 0 58.13 71.23&#10;  L 58.15 35.44&#10;  A 0.31 0.31 0.0 0 0 57.99 35.17&#10;  L 26.95 17.23&#10;  A 0.31 0.31 0.0 0 0 26.48 17.50&#10;  L 26.51 21.70"/>
<path stroke="#81809c" d="&#10;  M 18.98 25.99&#10;  A 0.35 0.35 0.0 0 0 19.16 26.29&#10;  L 46.19 41.89&#10;  A 0.35 0.35 0.0 0 1 46.36 42.19&#10;  L 46.40 73.40&#10;  A 0.35 0.35 0.0 0 0 46.57 73.70&#10;  L 50.03 75.77&#10;  A 0.35 0.35 0.0 0 0 50.56 75.47&#10;  L 50.55 39.70&#10;  A 0.35 0.35 0.0 0 0 50.37 39.40&#10;  L 19.38 21.53&#10;  A 0.35 0.35 0.0 0 0 18.86 21.85&#10;  L 18.98 25.99"/>
<path stroke="#81809c" d="&#10;  M 11.98 25.91&#10;  A 0.33 0.33 0.0 0 0 11.48 26.19&#10;  L 11.49 61.95&#10;  A 0.33 0.33 0.0 0 0 11.66 62.24&#10;  L 42.64 80.09&#10;  A 0.33 0.33 0.0 0 0 43.14 79.81&#10;  L 43.11 44.07&#10;  A 0.33 0.33 0.0 0 0 42.95 43.78&#10;  L 11.98 25.91"/>
</g>
<path fill="#ffffff" d="&#10;  M 75.82 69.06&#10;  Q 57.82 79.20 40.49 88.84&#10;  Q 39.72 89.26 38.85 89.60&#10;  Q 38.32 89.81 37.82 89.52&#10;  L 1.38 68.17&#10;  Q 1.01 67.96 1.01 67.54&#10;  L 1.00 24.56&#10;  Q 1.00 24.02 1.46 23.74&#10;  L 38.03 2.32&#10;  Q 38.53 2.03 39.02 2.32&#10;  L 75.54 23.75&#10;  Q 76.00 24.03 76.00 24.56&#10;  L 76.00 68.75&#10;  A 0.36 0.35 75.8 0 1 75.82 69.06&#10;  Z&#10;  M 33.91 17.30&#10;  A 0.35 0.35 0.0 0 0 34.09 17.60&#10;  L 61.20 33.24&#10;  A 0.35 0.35 0.0 0 1 61.38 33.54&#10;  L 61.38 64.74&#10;  A 0.35 0.35 0.0 0 0 61.55 65.04&#10;  L 65.03 67.12&#10;  A 0.35 0.35 0.0 0 0 65.56 66.82&#10;  L 65.58 31.09&#10;  A 0.35 0.35 0.0 0 0 65.40 30.79&#10;  L 34.47 12.94&#10;  A 0.35 0.35 0.0 0 0 33.95 13.24&#10;  L 33.91 17.30&#10;  Z&#10;  M 26.51 21.70&#10;  A 0.31 0.31 0.0 0 0 26.66 21.97&#10;  L 53.65 37.52&#10;  A 0.31 0.31 0.0 0 1 53.81 37.79&#10;  L 53.81 69.02&#10;  A 0.31 0.31 0.0 0 0 53.96 69.29&#10;  L 57.66 71.49&#10;  A 0.31 0.31 0.0 0 0 58.13 71.23&#10;  L 58.15 35.44&#10;  A 0.31 0.31 0.0 0 0 57.99 35.17&#10;  L 26.95 17.23&#10;  A 0.31 0.31 0.0 0 0 26.48 17.50&#10;  L 26.51 21.70&#10;  Z&#10;  M 18.98 25.99&#10;  A 0.35 0.35 0.0 0 0 19.16 26.29&#10;  L 46.19 41.89&#10;  A 0.35 0.35 0.0 0 1 46.36 42.19&#10;  L 46.40 73.40&#10;  A 0.35 0.35 0.0 0 0 46.57 73.70&#10;  L 50.03 75.77&#10;  A 0.35 0.35 0.0 0 0 50.56 75.47&#10;  L 50.55 39.70&#10;  A 0.35 0.35 0.0 0 0 50.37 39.40&#10;  L 19.38 21.53&#10;  A 0.35 0.35 0.0 0 0 18.86 21.85&#10;  L 18.98 25.99&#10;  Z&#10;  M 11.98 25.91&#10;  A 0.33 0.33 0.0 0 0 11.48 26.19&#10;  L 11.49 61.95&#10;  A 0.33 0.33 0.0 0 0 11.66 62.24&#10;  L 42.64 80.09&#10;  A 0.33 0.33 0.0 0 0 43.14 79.81&#10;  L 43.11 44.07&#10;  A 0.33 0.33 0.0 0 0 42.95 43.78&#10;  L 11.98 25.91&#10;  Z"/>
<path fill="#030039" d="&#10;  M 33.91 17.30&#10;  L 33.95 13.24&#10;  A 0.35 0.35 0.0 0 1 34.47 12.94&#10;  L 65.40 30.79&#10;  A 0.35 0.35 0.0 0 1 65.58 31.09&#10;  L 65.56 66.82&#10;  A 0.35 0.35 0.0 0 1 65.03 67.12&#10;  L 61.55 65.04&#10;  A 0.35 0.35 0.0 0 1 61.38 64.74&#10;  L 61.38 33.54&#10;  A 0.35 0.35 0.0 0 0 61.20 33.24&#10;  L 34.09 17.60&#10;  A 0.35 0.35 0.0 0 1 33.91 17.30&#10;  Z"/>
<path fill="#030039" d="&#10;  M 26.51 21.70&#10;  L 26.48 17.50&#10;  A 0.31 0.31 0.0 0 1 26.95 17.23&#10;  L 57.99 35.17&#10;  A 0.31 0.31 0.0 0 1 58.15 35.44&#10;  L 58.13 71.23&#10;  A 0.31 0.31 0.0 0 1 57.66 71.49&#10;  L 53.96 69.29&#10;  A 0.31 0.31 0.0 0 1 53.81 69.02&#10;  L 53.81 37.79&#10;  A 0.31 0.31 0.0 0 0 53.65 37.52&#10;  L 26.66 21.97&#10;  A 0.31 0.31 0.0 0 1 26.51 21.70&#10;  Z"/>
<path fill="#030039" d="&#10;  M 18.98 25.99&#10;  L 18.86 21.85&#10;  A 0.35 0.35 0.0 0 1 19.38 21.53&#10;  L 50.37 39.40&#10;  A 0.35 0.35 0.0 0 1 50.55 39.70&#10;  L 50.56 75.47&#10;  A 0.35 0.35 0.0 0 1 50.03 75.77&#10;  L 46.57 73.70&#10;  A 0.35 0.35 0.0 0 1 46.40 73.40&#10;  L 46.36 42.19&#10;  A 0.35 0.35 0.0 0 0 46.19 41.89&#10;  L 19.16 26.29&#10;  A 0.35 0.35 0.0 0 1 18.98 25.99&#10;  Z"/>
<path fill="#030039" d="&#10;  M 11.98 25.91&#10;  L 42.95 43.78&#10;  A 0.33 0.33 0.0 0 1 43.11 44.07&#10;  L 43.14 79.81&#10;  A 0.33 0.33 0.0 0 1 42.64 80.09&#10;  L 11.66 62.24&#10;  A 0.33 0.33 0.0 0 1 11.49 61.95&#10;  L 11.48 26.19&#10;  A 0.33 0.33 0.0 0 1 11.98 25.91&#10;  Z"/>
</svg>