<svg id="图层_1" data-name="图层 1" xmlns="http://www.w3.org/2000/svg" viewBox="0 0 205.08 229.48">
  <defs>
    <style>
      .cls-1 {
        fill: #41b166;
      }
    </style>
  </defs>
  <polygon class="cls-1" points="155.94 27.67 108.01 55.34 108.01 104.49 198.5 52.25 155.94 27.67"/>
  <polygon class="cls-1" points="143.47 20.47 108.01 0 108.01 40.94 143.47 20.47"/>
  <polygon class="cls-1" points="47.93 138.91 0 111.24 0 62.09 90.49 114.33 47.93 138.91"/>
  <polygon class="cls-1" points="35.46 146.11 0 166.58 0 125.64 35.46 146.11"/>
  <polygon class="cls-1" points="54.33 79.92 54.33 24.58 96.9 0 96.9 104.49 54.33 79.92"/>
  <polygon class="cls-1" points="41.86 72.72 6.4 52.25 41.86 31.78 41.86 72.72"/>
  <polygon class="cls-1" points="150.18 204.9 150.18 149.56 107.61 124.98 107.61 229.48 150.18 204.9"/>
  <polygon class="cls-1" points="162.65 197.7 198.1 177.23 162.65 156.76 162.65 197.7"/>
  <polygon class="cls-1" points="205.08 117.43 157.15 89.76 114.58 114.33 205.08 166.58 205.08 117.43"/>
  <polygon class="cls-1" points="205.08 103.03 205.08 62.09 169.62 82.56 205.08 103.03"/>
  <polygon class="cls-1" points="96.57 174.13 48.64 201.81 6.08 177.23 96.57 124.98 96.57 174.13"/>
  <polygon class="cls-1" points="96.57 188.54 96.57 229.48 61.11 209.01 96.57 188.54"/>
</svg>
